<svg width="22" height="22" viewBox="0 0 22 22" fill="none" xmlns="http://www.w3.org/2000/svg">
<path d="M15.6168 2.75204C15.8552 2.51361 16.1383 2.32448 16.4498 2.19545C16.7613 2.06641 17.0952 2 17.4324 2C17.7696 2 18.1035 2.06641 18.415 2.19545C18.7265 2.32448 19.0095 2.51361 19.248 2.75204C19.4864 2.99046 19.6755 3.27351 19.8046 3.58503C19.9336 3.89655 20 4.23043 20 4.56761C20 4.90479 19.9336 5.23868 19.8046 5.55019C19.6755 5.86171 19.4864 6.14476 19.248 6.38319L6.99283 18.6383L2 20L3.36168 15.0072L15.6168 2.75204Z" stroke="white" stroke-width="3" stroke-linecap="round" stroke-linejoin="round"/>
</svg>
