<svg width="35" height="35" viewBox="0 0 35 35" fill="none" xmlns="http://www.w3.org/2000/svg">
<path d="M34.5959 0.424695C34.3988 0.228812 34.1499 0.0931897 33.8783 0.0337746C33.6067 -0.0256405 33.3238 -0.00637856 33.0628 0.0892957L0.942232 11.7554C0.665218 11.8603 0.426726 12.0469 0.25843 12.2905C0.090134 12.534 0 12.8229 0 13.1188C0 13.4147 0.090134 13.7037 0.25843 13.9472C0.426726 14.1907 0.665218 14.3774 0.942232 14.4823L14.9585 20.082L20.565 34.0813C20.6703 34.3458 20.8509 34.5738 21.0844 34.737C21.3179 34.9003 21.5941 34.9917 21.879 35C22.1741 34.994 22.4604 34.8988 22.7002 34.7269C22.9399 34.5551 23.122 34.3148 23.2222 34.0376L34.9025 1.95587C35.0019 1.69787 35.0259 1.41694 34.9716 1.14584C34.9174 0.874738 34.787 0.624637 34.5959 0.424695ZM21.879 29.4586L17.8055 19.2508L24.7991 12.2658L22.7404 10.2096L15.6885 17.253L5.52672 13.1261L31.121 3.89535L21.879 29.4586Z" fill="#0D253C"/>
</svg>
